<?xml version="1.0" encoding="iso-8859-1"?>
<!-- Generator: Adobe Illustrator 24.1.2, SVG Export Plug-In . SVG Version: 6.00 Build 0)  -->
<svg version="1.1" xmlns="http://www.w3.org/2000/svg" xmlns:xlink="http://www.w3.org/1999/xlink" x="0px" y="0px"
	 viewBox="0 0 50 50" style="enable-background:new 0 0 50 50;" xml:space="preserve">
<g id="Layer_10" style="display:none;">
	<g style="display:inline;opacity:0.05;">
		<g>
			<circle style="fill:#FFFFFF;" cx="25" cy="25" r="21.5"/>
			<path d="M25,4c11.579,0,21,9.421,21,21s-9.421,21-21,21S4,36.579,4,25S13.421,4,25,4 M25,3C12.85,3,3,12.85,3,25s9.85,22,22,22
				s22-9.85,22-22S37.15,3,25,3L25,3z"/>
		</g>
		<g>
			<rect x="5.5" y="5.5" style="fill:#FFFFFF;" width="39" height="39"/>
			<path d="M44,6v38H6V6H44 M45,5H5v40h40V5L45,5z"/>
		</g>
	</g>
</g>
<g id="filled">
</g>
<g id="outlined">
</g>
<g id="rounded">
</g>
<g id="two_x5F_tone">
</g>
<g id="sharp">
</g>
<g id="win10">
</g>
<g id="ios_x5F_out">
</g>
<g id="ios_x5F_filled">
	<path style="fill:none;stroke:#000000;stroke-width:2;stroke-linecap:round;stroke-linejoin:round;stroke-miterlimit:10;" d="
		M40.222,48H9.778c-2.12,0-3.873-1.655-3.993-3.772L4.06,14.057C4.028,13.483,4.484,13,5.059,13h39.882
		c0.575,0,1.031,0.483,0.998,1.057l-1.724,30.171C44.095,46.345,42.343,48,40.222,48z"/>
	<path style="fill:none;stroke:#000000;stroke-width:2;stroke-linecap:round;stroke-linejoin:round;stroke-miterlimit:10;" d="
		M16,13c0-6.075,4.029-11,9-11s9,4.925,9,11"/>
	<path d="M44.94,13H5.06c-0.58,0-1.03,0.48-1,1.06l1.72,30.17c0.13,2.12,1.88,3.77,4,3.77h30.44c2.12,0,3.87-1.65,4-3.77l1.72-30.17
		C45.97,13.48,45.52,13,44.94,13z M24.91,43.01c-3.99,0-7.27-2.45-8.08-3.1l1.11-1.65c0.03,0.03,3.22,2.77,6.97,2.77
		c3.36,0,6.09-1.99,6.09-4.43c0-3.16-2.43-4.28-6.44-5.74c-3.3-1.21-7.05-2.58-7.05-6.61c0-3.56,3.25-6.25,7.57-6.25
		c3.84,0,6.72,2.06,6.96,2.21l-1.03,1.67c-0.25-0.17-0.7-0.44-0.87-0.54c-1.02-0.55-2.9-1.37-5.06-1.37c-3.25,0-5.6,1.8-5.6,4.28
		c0,2.47,2.18,3.45,5.76,4.76c3.63,1.32,7.73,2.82,7.73,7.59C32.97,40.19,29.43,43.01,24.91,43.01z"/>
</g>
<g id="color">
</g>
<g id="fluent">
</g>
<g id="doodle">
</g>
<g id="fluent-sys">
</g>
</svg>